<?xml version="1.0" encoding="UTF-8" standalone="no"?>
<svg
   xmlns:dc="http://purl.org/dc/elements/1.1/"
   xmlns:cc="http://creativecommons.org/ns#"
   xmlns:rdf="http://www.w3.org/1999/02/22-rdf-syntax-ns#"
   xmlns:svg="http://www.w3.org/2000/svg"
   xmlns="http://www.w3.org/2000/svg"
   xmlns:sodipodi="http://sodipodi.sourceforge.net/DTD/sodipodi-0.dtd"
   xmlns:inkscape="http://www.inkscape.org/namespaces/inkscape"
   id="svg"
   version="1.1"
   width="400"
   height="402.91970802919707"
   viewBox="0, 0, 400,402.91970802919707"
   sodipodi:docname="image2vector.svg"
   inkscape:version="0.92.4 (unknown)">
  <metadata
     id="metadata13">
    <rdf:RDF>
      <cc:Work
         rdf:about="">
        <dc:format>image/svg+xml</dc:format>
        <dc:type
           rdf:resource="http://purl.org/dc/dcmitype/StillImage" />
      </cc:Work>
    </rdf:RDF>
  </metadata>
  <defs
     id="defs11" />
  <sodipodi:namedview
     pagecolor="#ffffff"
     bordercolor="#666666"
     borderopacity="1"
     objecttolerance="10"
     gridtolerance="10"
     guidetolerance="10"
     inkscape:pageopacity="0"
     inkscape:pageshadow="2"
     inkscape:window-width="1366"
     inkscape:window-height="703"
     id="namedview9"
     showgrid="false"
     inkscape:zoom="2.3428985"
     inkscape:cx="213.67109"
     inkscape:cy="217.00722"
     inkscape:window-x="0"
     inkscape:window-y="0"
     inkscape:window-maximized="1"
     inkscape:current-layer="svgg" />
  <g
     id="svgg">
    <path
       d="m 151.2,35.23 c -12.007,1.438 -14.913,5.943 -11.261,17.456 1.652,5.209 3.245,10.635 3.968,13.514 0.775,3.089 2.482,8.295 3.128,9.541 0.768,1.48 1.2,3.102 1.774,6.659 0.231,1.43 0.885,3.59 1.455,4.8 0.569,1.21 1.632,3.46 2.362,5 0.791,1.671 1.505,4.01 1.769,5.799 0.244,1.65 0.769,3.552 1.168,4.228 0.763,1.293 2.437,5.852 2.437,6.636 0,0.253 0.453,1.417 1.006,2.586 0.553,1.17 1.117,2.987 1.253,4.039 0.136,1.052 0.643,2.812 1.127,3.912 0.484,1.1 1.098,2.9 1.363,4 0.266,1.1 1,3.08 1.631,4.4 0.631,1.32 1.444,3.57 1.806,5 0.363,1.43 1.349,4.04 2.19,5.8 0.842,1.76 1.771,3.885 2.066,4.722 1.112,3.164 3.998,3.744 8.302,1.668 1.072,-0.517 3.098,-1.233 4.503,-1.591 3.329,-0.848 5.832,-2.054 7.495,-3.612 l 1.342,-1.257 -0.448,-2.365 c -0.488,-2.576 -1.672,-6.989 -2.888,-10.765 -0.425,-1.32 -1.031,-3.417 -1.347,-4.661 -0.315,-1.244 -0.929,-3.044 -1.365,-4 -0.435,-0.956 -1.338,-3.539 -2.007,-5.739 -0.669,-2.2 -1.946,-6.07 -2.838,-8.6 -0.891,-2.53 -2.16,-6.49 -2.819,-8.8 -0.659,-2.31 -1.57,-4.896 -2.024,-5.746 -0.454,-0.851 -1.102,-2.651 -1.439,-4 -0.338,-1.35 -0.926,-3.084 -1.307,-3.854 -0.38,-0.77 -1.192,-2.93 -1.804,-4.8 -0.612,-1.87 -1.497,-4.21 -1.966,-5.2 -0.469,-0.99 -1.373,-3.42 -2.007,-5.4 -0.956,-2.983 -2.647,-7.835 -5.855,-16.8 -0.236,-0.66 -0.71,-2.01 -1.054,-3 -2.987,-8.609 -4.586,-10.184 -9.716,-9.57"
       id="path4630"
       style="fill:#d6d43a;fill-opacity:1" />
    <path
       d="m 132.6,65.347 c -1.502,0.671 -4.471,2.132 -5.835,2.873 -1.312,0.712 -2.492,3.3 -2.504,5.489 -0.012,2.47 2.302,11.36 3.929,15.091 1.106,2.538 2.415,6.2 4.145,11.6 0.669,2.09 2.03,5.78 3.023,8.2 0.994,2.42 2.168,6.036 2.611,8.036 0.442,1.999 1.193,4.519 1.668,5.6 0.475,1.08 1.657,4.476 2.628,7.546 0.97,3.07 2.196,6.58 2.724,7.8 0.528,1.22 1.449,3.838 2.046,5.818 0.597,1.98 1.492,4.77 1.988,6.2 0.497,1.43 1.024,3.139 1.172,3.798 0.65,2.89 2.956,6.827 4.51,7.701 l 1.526,0.857 3.384,-0.972 c 6.625,-1.903 8.933,-8.234 5.639,-15.466 -0.47,-1.031 -0.854,-2.15 -0.854,-2.487 0,-0.337 -0.464,-1.832 -1.032,-3.322 -1.321,-3.467 -2.383,-6.952 -2.926,-9.598 -0.236,-1.149 -0.785,-2.755 -1.221,-3.567 -0.436,-0.813 -0.995,-2.456 -1.243,-3.651 -0.248,-1.196 -0.876,-3.019 -1.395,-4.051 -0.518,-1.033 -1.14,-2.77 -1.38,-3.86 -0.68,-3.088 -3.593,-11.471 -4.372,-12.582 -0.386,-0.55 -0.815,-1.72 -0.955,-2.6 -0.292,-1.834 -1.591,-6.27 -2.694,-9.2 -0.414,-1.1 -0.878,-2.528 -1.029,-3.173 -0.152,-0.645 -0.675,-1.761 -1.163,-2.48 -0.553,-0.814 -1.06,-2.482 -1.345,-4.427 -0.282,-1.919 -0.776,-3.553 -1.282,-4.244 -0.452,-0.619 -1.172,-2.139 -1.598,-3.379 -0.707,-2.053 -1.514,-3.594 -2.454,-4.687 -0.195,-0.225 -0.659,-1.04 -1.032,-1.81 -0.78,-1.608 -2.545,-2.005 -4.679,-1.053"
       id="path4628"
       style="fill:#d6d43a;fill-opacity:1" />
    <path
       d="m 185.8,68 c -0.44,0.189 -1.272,0.356 -1.849,0.372 -2.865,0.077 -5.843,2.254 -6.215,4.542 -0.256,1.579 1.894,8.951 3.929,13.474 0.64,1.423 1.441,3.929 1.78,5.568 0.339,1.64 1.216,4.435 1.949,6.213 0.733,1.777 1.632,4.263 1.996,5.524 0.364,1.261 0.8,2.377 0.968,2.481 0.168,0.104 0.53,1.232 0.804,2.507 0.704,3.277 2.266,8.191 3.38,10.637 2.265,4.972 2.574,5.828 3.061,8.482 0.569,3.101 2.104,7.205 3.991,10.672 0.68,1.25 1.658,3.724 2.174,5.499 0.516,1.774 1.2,3.632 1.521,4.127 0.321,0.496 0.972,2.188 1.446,3.76 3.156,10.46 5.614,12.332 12.656,9.642 4.744,-1.812 5.268,-2.976 3.97,-8.821 -0.352,-1.583 -0.97,-3.453 -1.373,-4.155 -0.403,-0.702 -1.103,-2.592 -1.556,-4.2 -0.826,-2.937 -1.284,-4.211 -3.637,-10.124 -0.701,-1.76 -1.688,-4.763 -2.195,-6.674 -0.506,-1.91 -1.019,-3.633 -1.139,-3.827 -0.12,-0.194 -0.599,-1.777 -1.066,-3.517 -0.466,-1.74 -0.997,-3.348 -1.179,-3.573 -0.183,-0.225 -0.896,-2.119 -1.584,-4.209 -0.689,-2.09 -1.441,-4.34 -1.671,-5 -0.231,-0.66 -1.831,-5.43 -3.556,-10.6 -3.698,-11.083 -4.62,-13.657 -5.575,-15.573 -0.391,-0.785 -1.021,-2.687 -1.4,-4.227 -0.378,-1.54 -0.924,-3.34 -1.212,-4 -0.288,-0.66 -0.757,-1.83 -1.041,-2.6 -0.973,-2.64 -4.3,-3.722 -7.377,-2.4"
       id="path4626"
       style="fill:#efaa35;fill-opacity:1" />
    <path
       d="m 303.784,87.748 c -0.669,0.248 -2.109,1.104 -3.2,1.901 -1.091,0.798 -2.351,1.563 -2.801,1.701 -0.449,0.138 -1.619,0.987 -2.6,1.886 -0.98,0.9 -2.807,2.339 -4.058,3.198 -1.252,0.859 -2.39,1.747 -2.53,1.974 -0.14,0.226 -1.816,1.487 -3.724,2.803 -3.863,2.662 -6.175,4.332 -10.527,7.601 -1.619,1.217 -3.428,2.567 -4.02,3 -1.812,1.326 -7.697,5.92 -8.158,6.367 -0.239,0.231 -0.936,0.781 -1.55,1.221 -0.614,0.44 -1.624,1.212 -2.243,1.716 -2.235,1.818 -7.782,5.677 -8.173,5.688 -0.22,0.005 -1.377,0.919 -2.571,2.029 -1.194,1.111 -2.634,2.26 -3.2,2.553 -0.566,0.293 -1.569,1.04 -2.229,1.659 -1.295,1.214 -3.731,2.926 -6.6,4.638 -3.367,2.009 -6.8,5.968 -6.8,7.843 0,2.619 2.152,6.188 4.822,7.996 2.281,1.545 6.647,0.812 10.534,-1.767 1.288,-0.855 2.844,-1.825 3.458,-2.155 1.371,-0.737 5.086,-3.349 7.253,-5.1 0.885,-0.715 1.817,-1.3 2.071,-1.3 0.254,-10e-4 1.182,-0.745 2.062,-1.654 1.601,-1.654 5.28,-4.346 5.94,-4.346 0.193,0 0.915,-0.46 1.605,-1.021 1.201,-0.978 4.4,-3.309 6.284,-4.579 0.49,-0.33 1.343,-1.095 1.897,-1.7 0.553,-0.605 1.219,-1.1 1.478,-1.1 0.26,0 0.814,-0.378 1.233,-0.841 0.419,-0.462 1.302,-1.119 1.962,-1.459 0.661,-0.34 1.843,-1.267 2.628,-2.059 2.22,-2.242 4.363,-3.782 6.936,-4.985 1.494,-0.699 3.259,-2.021 4.8,-3.596 2.7,-2.76 7.592,-6.47 9.996,-7.582 1.563,-0.723 4.024,-2.592 6.405,-4.863 0.7,-0.668 1.669,-1.528 2.154,-1.911 2.07,-1.634 0.276,-8.601 -2.973,-11.54 -1.123,-1.017 -3.891,-2.81 -4.192,-2.716 -0.084,0.026 -0.7,0.251 -1.369,0.5"
       id="path4624"
       style="fill:#d6d43a;fill-opacity:1" />
    <path
       d="m 335.6,92.388 c -0.55,0.176 -1.54,0.609 -2.2,0.963 -0.66,0.354 -1.391,0.645 -1.625,0.647 -0.234,10e-4 -0.954,0.559 -1.6,1.239 -0.646,0.681 -2.013,1.665 -3.038,2.188 -1.024,0.523 -1.924,1.091 -2,1.263 -0.195,0.445 -3.749,2.83 -6.337,4.253 -3.555,1.955 -8.832,5.672 -11.2,7.89 -1.21,1.133 -2.83,2.467 -3.6,2.963 -0.77,0.496 -1.743,1.286 -2.162,1.754 -0.419,0.469 -0.972,0.852 -1.228,0.852 -0.256,0 -1.173,0.604 -2.038,1.341 -0.865,0.738 -2.202,1.663 -2.972,2.056 -1.411,0.719 -4.216,2.901 -6.8,5.29 -0.77,0.711 -2.525,1.952 -3.9,2.756 -1.375,0.804 -2.5,1.628 -2.5,1.83 0,0.202 -0.671,0.648 -1.491,0.991 -0.819,0.342 -1.764,0.927 -2.1,1.3 -1.158,1.288 -5.733,4.903 -6.64,5.248 -0.994,0.378 -1.654,0.878 -4.74,3.588 -2.711,2.381 -4.883,3.962 -9.229,6.719 -9.862,6.257 -11.087,9.262 -6.514,15.979 6.446,9.47 9.99,11.356 14.714,7.828 0.55,-0.411 1.466,-0.982 2.036,-1.27 0.569,-0.287 1.824,-1.222 2.787,-2.077 0.964,-0.854 2.253,-1.664 2.865,-1.798 0.611,-0.135 1.112,-0.396 1.112,-0.58 0,-0.185 0.665,-0.746 1.477,-1.249 0.812,-0.502 2.348,-1.686 3.413,-2.632 1.065,-0.946 2.201,-1.72 2.523,-1.72 0.323,0 0.587,-0.156 0.587,-0.347 0,-0.191 0.709,-0.816 1.575,-1.389 0.867,-0.574 1.992,-1.416 2.5,-1.872 2.05,-1.839 8.23,-6.713 9.106,-7.182 1.183,-0.633 8.56,-6.021 10.419,-7.611 2.544,-2.174 4.981,-3.981 6.3,-4.669 0.715,-0.373 1.3,-0.811 1.3,-0.973 0,-0.163 1.215,-1.119 2.7,-2.124 1.485,-1.006 3.69,-2.751 4.9,-3.877 2.106,-1.961 6.723,-5.61 9.366,-7.403 0.686,-0.466 1.492,-1.141 1.79,-1.5 0.298,-0.359 0.745,-0.655 0.993,-0.658 0.248,-0.003 1.197,-0.698 2.11,-1.546 1.582,-1.47 2.609,-2.247 7.141,-5.402 6.186,-4.307 6.427,-7.847 1.033,-15.147 -0.772,-1.045 -1.551,-1.9 -1.732,-1.9 -0.18,0 -0.704,-0.638 -1.164,-1.417 -1.303,-2.208 -3.771,-3.287 -5.937,-2.595"
       id="path4622"
       style="fill:#d6d43a;fill-opacity:1" />
    <path
       d="m 317.2,140.705 c -1.43,1.002 -3.074,2.109 -3.654,2.459 -0.58,0.35 -2.759,1.941 -4.841,3.536 -2.083,1.595 -3.974,2.9 -4.203,2.9 -0.229,0 -0.517,0.262 -0.64,0.582 -0.122,0.32 -0.835,0.995 -1.583,1.5 -5.046,3.407 -6.144,4.187 -6.679,4.748 -1.046,1.097 -4.152,3.427 -5.478,4.11 -0.703,0.362 -2.323,1.523 -3.6,2.58 -1.277,1.057 -3.132,2.479 -4.122,3.159 -0.99,0.681 -2.79,2.15 -4,3.264 -1.21,1.115 -2.819,2.328 -3.576,2.697 -1.829,0.89 -7.952,5.662 -11.363,8.855 -1.506,1.41 -3.306,2.908 -4,3.33 -1.238,0.751 -2.208,1.539 -6.417,5.207 -1.157,1.008 -2.91,2.388 -3.896,3.066 -5.704,3.925 -5.968,6.745 -1.169,12.477 3.396,4.056 7.12,3.63 13.119,-1.5 1.486,-1.27 4,-3.339 5.586,-4.597 1.586,-1.257 3.327,-2.69 3.868,-3.182 1.701,-1.549 2.402,-2.083 4.048,-3.088 0.88,-0.537 2.975,-2.108 4.657,-3.492 1.681,-1.384 3.186,-2.516 3.345,-2.516 0.335,0 4.552,-3.091 6.598,-4.836 2.576,-2.197 4.188,-3.41 5.8,-4.364 1.608,-0.952 3.543,-2.436 5.4,-4.144 0.55,-0.505 1.535,-1.25 2.19,-1.655 1.363,-0.844 1.497,-0.945 3.463,-2.587 0.799,-0.668 1.635,-1.214 1.857,-1.214 0.222,0 0.504,-0.261 0.627,-0.579 0.122,-0.319 0.812,-0.884 1.534,-1.258 0.721,-0.373 2.576,-1.747 4.12,-3.054 1.545,-1.306 3.349,-2.651 4.009,-2.989 0.66,-0.337 1.598,-0.978 2.085,-1.422 0.487,-0.445 1.228,-1.009 1.647,-1.254 5.356,-3.121 8.658,-8.843 6.039,-10.462 -0.211,-0.13 -0.632,-0.809 -0.936,-1.509 -0.304,-0.7 -1.381,-2.159 -2.394,-3.242 -1.013,-1.083 -1.841,-2.106 -1.841,-2.273 0,-0.279 -0.877,-0.626 -2.4,-0.949 -0.33,-0.07 -1.77,0.693 -3.2,1.696"
       id="path4620"
       style="fill:#efaa35;fill-opacity:1" />
    <path
       d="m 88.4,169.594 c -20.305,0.346 -19.254,-0.101 -19.533,8.3 l -0.163,4.895 1.248,1.166 1.248,1.166 7.1,0.261 c 9.827,0.361 9.443,0.36 32.7,0.083 52.124,-0.621 54.311,-0.718 56.09,-2.498 1.695,-1.694 1.838,-7.311 0.267,-10.417 -1.535,-3.034 -1.931,-3.156 -10.116,-3.112 -23.454,0.125 -48.206,0.135 -50.441,0.021 -1.43,-0.074 -9.71,-0.013 -18.4,0.135"
       id="path4618"
       style="fill:#efaa35;fill-opacity:1" />
    <path
       d="m 115.573,191.76 c -0.097,0.098 -19.13,0.283 -42.295,0.411 -44.362,0.247 -45.044,0.278 -46.971,2.12 -3.81,3.643 -3.583,15.78 0.35,18.78 l 1.458,1.112 9.443,0.314 c 5.193,0.173 11.422,0.485 13.842,0.694 15.613,1.344 21.461,1.482 53.6,1.268 24.743,-0.165 30.232,-0.724 31.414,-3.199 1.292,-2.704 0.883,-17.918 -0.531,-19.795 -0.744,-0.987 -19.457,-2.557 -20.31,-1.705"
       id="path4616"
       style="fill:#d6d43a;fill-opacity:1" />
    <path
       d="m 266.598,208.145 c -0.219,0.299 -1.257,1.604 -2.306,2.9 -3.188,3.934 -3.835,8.196 -1.641,10.796 2.584,3.06 5.817,5.808 10.543,8.959 0.825,0.55 2.468,1.965 3.653,3.143 1.184,1.179 2.926,2.481 3.871,2.894 1.801,0.786 3.766,2.146 6.015,4.163 0.736,0.66 1.637,1.364 2.003,1.565 0.365,0.2 0.811,0.61 0.99,0.911 0.18,0.301 1.059,1.009 1.953,1.574 0.894,0.564 2.593,1.814 3.776,2.777 1.182,0.963 3.093,2.374 4.247,3.135 1.154,0.761 3.35,2.566 4.881,4.011 1.531,1.445 3.017,2.627 3.303,2.627 0.286,0 0.911,0.45 1.389,1 0.478,0.55 1.011,1 1.183,1 1.103,0 13.879,9.514 14.844,11.054 0.166,0.265 1.111,0.79 2.1,1.168 0.989,0.378 1.798,0.841 1.798,1.029 0,0.705 5.551,4.018 7.061,4.215 2.495,0.326 6.024,-3.302 7.957,-8.179 1.256,-3.168 -0.178,-6.035 -4.418,-8.833 -1.844,-1.217 -3.121,-2.261 -4.4,-3.597 -0.496,-0.519 -2.519,-2.049 -4.494,-3.4 -3.835,-2.624 -9.389,-6.769 -10.706,-7.99 -0.44,-0.409 -1.61,-1.291 -2.6,-1.96 -0.99,-0.67 -1.982,-1.418 -2.204,-1.663 -0.939,-1.033 -4.497,-3.773 -5.717,-4.404 -0.727,-0.375 -1.628,-0.988 -2.003,-1.361 -1.228,-1.223 -11.076,-8.669 -13.596,-10.281 -1.034,-0.66 -2.936,-2.01 -4.226,-3 -1.29,-0.989 -2.742,-2.068 -3.227,-2.398 -0.484,-0.33 -2.277,-1.68 -3.984,-3 -10.654,-8.237 -14.818,-10.535 -16.045,-8.855"
       id="path4614"
       style="fill:#d6d43a;fill-opacity:1" />
    <path
       d="m 79,218.855 c -0.674,0.218 -3.128,0.283 -5.6,0.149 -2.42,-0.13 -6.47,-0.032 -9,0.22 -2.53,0.251 -6.13,0.574 -8,0.716 -5.813,0.444 -6.707,1.719 -6.324,9.018 0.191,3.639 0.909,5.351 2.853,6.8 l 1.13,0.842 h 45.47 c 50.707,0 47.635,0.17 49.002,-2.711 1.555,-3.277 0.431,-10.113 -1.896,-11.53 -3.001,-1.828 -17.858,-3.125 -35.835,-3.129 -6.27,-10e-4 -14.1,-0.185 -17.4,-0.408 -7.326,-0.495 -12.799,-0.483 -14.4,0.033"
       id="path4612"
       style="fill:#d6d43a;fill-opacity:1" />
    <path
       d="m 163.28,227.995 c -1.701,0.402 -1.578,0.227 -2.545,3.642 -0.457,1.616 -1.084,3.323 -1.393,3.796 -0.606,0.924 -1.126,2.39 -4.885,13.767 -1.344,4.07 -2.697,8.12 -3.006,9 -0.932,2.655 -1.32,3.839 -2.489,7.6 -0.615,1.98 -1.263,3.87 -1.44,4.2 -0.178,0.33 -0.852,2.22 -1.499,4.2 -0.647,1.98 -1.458,4.41 -1.802,5.4 -0.344,0.99 -1.167,3.6 -1.828,5.8 -0.661,2.2 -1.546,4.9 -1.967,6 -0.42,1.1 -1.228,3.201 -1.795,4.668 -0.567,1.468 -1.031,2.957 -1.031,3.309 0,0.352 -0.656,2.301 -1.458,4.332 -2.788,7.058 -4.293,13.99 -3.491,16.079 0.725,1.89 11.336,5.385 12.76,4.203 0.991,-0.822 2.184,-3.386 3.626,-7.791 2.097,-6.405 3.012,-9.066 3.853,-11.2 0.434,-1.1 1.211,-3.61 1.727,-5.578 0.516,-1.967 1.558,-5.117 2.315,-7 1.796,-4.465 3.216,-8.443 4.077,-11.422 0.382,-1.32 1.109,-3.307 1.615,-4.415 0.507,-1.108 1.129,-2.908 1.381,-4 0.253,-1.092 0.892,-2.885 1.419,-3.985 0.528,-1.1 1.134,-3.244 1.347,-4.765 0.213,-1.521 0.752,-3.861 1.198,-5.2 0.446,-1.339 1.514,-4.775 2.373,-7.635 0.859,-2.86 1.956,-6.19 2.438,-7.4 2.529,-6.348 3.089,-10.863 1.52,-12.266 -2.018,-1.805 -7.669,-3.997 -9.5,-3.686 -0.11,0.019 -0.794,0.175 -1.52,0.347"
       id="path4610"
       style="fill:#efaa35;fill-opacity:1" />
    <path
       d="m 260.775,231.123 c -0.316,0.441 -1.685,2.148 -3.041,3.793 -1.356,1.646 -2.924,3.718 -3.484,4.605 -0.56,0.886 -1.188,1.717 -1.397,1.846 -0.843,0.521 -2.887,6.224 -2.485,6.936 0.82,1.456 7.868,7.897 10.13,9.258 0.823,0.496 1.633,1.112 1.8,1.37 0.166,0.258 1.832,1.515 3.702,2.793 1.87,1.279 4.3,3.033 5.4,3.9 1.1,0.866 2.72,1.939 3.6,2.385 0.88,0.445 2.68,1.725 4,2.844 1.32,1.12 4.11,3.304 6.2,4.855 2.09,1.552 4.16,3.165 4.6,3.585 1.137,1.087 7.393,6.022 8.795,6.939 0.647,0.422 1.594,1.155 2.106,1.629 0.512,0.473 1.408,0.98 1.991,1.126 1.074,0.27 2.863,1.4 4.297,2.715 0.434,0.397 1.77,1.392 2.969,2.21 1.199,0.819 2.57,1.848 3.048,2.288 0.478,0.44 1.792,1.43 2.921,2.2 1.843,1.256 3.477,2.448 10.607,7.731 1.136,0.842 3.056,2.191 4.266,2.999 1.21,0.807 2.292,1.589 2.404,1.738 0.342,0.451 3.728,1.52 4.836,1.526 3.061,0.017 7.525,-4.289 10.19,-9.829 2.174,-4.521 1.208,-7.183 -4.03,-11.097 -1.32,-0.987 -3.66,-2.889 -5.2,-4.228 -1.54,-1.338 -3.745,-3.09 -4.9,-3.893 -1.155,-0.803 -2.1,-1.602 -2.1,-1.775 0,-0.281 -2.244,-2.077 -7.565,-6.053 -0.97,-0.726 -2.37,-1.903 -3.11,-2.616 -0.741,-0.714 -2.029,-1.646 -2.862,-2.071 -0.834,-0.425 -1.772,-1.081 -2.084,-1.457 -0.312,-0.376 -1.276,-1.131 -2.142,-1.678 -2.019,-1.275 -1.819,-1.113 -6.037,-4.875 -1.98,-1.767 -4.185,-3.43 -4.9,-3.697 -0.715,-0.267 -1.3,-0.622 -1.3,-0.788 0,-0.167 -0.855,-0.797 -1.9,-1.401 -1.045,-0.604 -1.99,-1.206 -2.1,-1.337 -0.11,-0.132 -1.08,-0.861 -2.156,-1.62 -1.076,-0.758 -2.49,-1.874 -3.143,-2.479 -0.652,-0.605 -1.405,-1.1 -1.674,-1.1 -0.268,0 -0.921,-0.461 -1.45,-1.025 -0.53,-0.564 -1.576,-1.403 -2.324,-1.866 -0.749,-0.463 -2.102,-1.546 -3.007,-2.408 -0.905,-0.862 -2.546,-2.162 -3.646,-2.89 -1.1,-0.728 -2.436,-1.793 -2.97,-2.367 -0.533,-0.574 -1.18,-1.044 -1.438,-1.044 -0.257,0 -0.786,-0.352 -1.176,-0.782 -0.389,-0.43 -1.632,-1.259 -2.762,-1.842 -1.13,-0.583 -2.504,-1.463 -3.054,-1.955 -3.677,-3.29 -7.325,-4.631 -8.425,-3.098"
       id="path4608"
       style="fill:#d6d43a;fill-opacity:1" />
    <path
       d="m 221.753,238.556 c -3.509,0.946 -7.816,6.723 -7.012,9.405 0.586,1.957 2.216,3.998 4.695,5.878 1.08,0.819 2.774,2.2 3.764,3.067 0.99,0.868 2.663,2.016 3.719,2.552 1.055,0.536 2.019,1.237 2.143,1.558 0.123,0.321 0.43,0.584 0.683,0.584 0.252,0 1.808,1.004 3.457,2.231 4.114,3.063 4.855,3.642 7.923,6.199 1.471,1.227 3.485,2.757 4.475,3.4 2.598,1.688 4.409,3.036 11.4,8.482 2.2,1.713 4.675,3.529 5.5,4.034 0.825,0.506 1.5,1.082 1.5,1.281 0,0.199 0.675,0.644 1.5,0.988 0.825,0.344 2.04,1.134 2.7,1.754 0.66,0.621 2.55,2.139 4.2,3.373 1.65,1.235 3.18,2.426 3.4,2.647 0.818,0.822 6.262,4.652 8.259,5.811 1.137,0.66 2.497,1.604 3.021,2.098 3.705,3.493 8.532,1.087 11.2,-5.581 0.334,-0.834 0.767,-1.517 0.963,-1.517 2.151,0 -1.58,-5.466 -5.475,-8.021 -0.557,-0.365 -1.282,-1.05 -1.613,-1.521 -0.33,-0.472 -0.838,-0.858 -1.129,-0.858 -0.29,0 -0.775,-0.299 -1.077,-0.665 -0.302,-0.365 -1.719,-1.449 -3.149,-2.407 -1.43,-0.959 -3.23,-2.184 -4,-2.723 -0.77,-0.539 -1.989,-1.391 -2.709,-1.893 -0.719,-0.501 -2.429,-1.765 -3.8,-2.808 -1.37,-1.043 -2.604,-1.898 -2.743,-1.9 -0.138,-0.002 -0.964,-0.679 -1.835,-1.504 -2.246,-2.128 -5.195,-4.402 -9.113,-7.027 -1.1,-0.738 -2.247,-1.64 -2.549,-2.007 -0.302,-0.366 -0.734,-0.666 -0.961,-0.666 -0.456,0 -2.176,-1.244 -7.394,-5.35 -1.923,-1.513 -3.946,-3.035 -4.496,-3.383 -0.55,-0.347 -1.591,-1.135 -2.314,-1.749 -0.723,-0.615 -1.577,-1.118 -1.899,-1.118 -0.676,0 -2.97,-1.57 -9.312,-6.373 -7.902,-5.986 -9.623,-6.891 -11.922,-6.271"
       id="path4606"
       style="fill:#efaa35;fill-opacity:1" />
    <path
       d="m 173.857,262.2 c -0.33,0.33 -0.894,1.612 -1.254,2.848 -0.359,1.236 -1.092,2.942 -1.628,3.792 -0.536,0.849 -0.975,1.707 -0.975,1.906 0,0.474 -1.066,3.985 -2.203,7.254 -0.497,1.43 -1.274,3.77 -1.726,5.2 -0.452,1.43 -1.654,4.94 -2.672,7.8 -1.018,2.86 -2.275,6.64 -2.794,8.4 -0.519,1.76 -1.88,5.81 -3.024,9 -1.144,3.19 -2.434,7.24 -2.865,9 -0.767,3.129 -1.98,6.786 -3.582,10.8 -0.439,1.1 -1.147,3.44 -1.574,5.2 -0.818,3.373 -3.448,11.32 -3.971,12 -0.44,0.573 -3.803,11.029 -4.726,14.697 -1.62,6.436 1.694,9.993 10.806,11.603 7.314,1.291 8.925,-0.62 14.915,-17.7 0.501,-1.43 1.276,-3.23 1.722,-4 1.448,-2.5 3.717,-8.718 4.308,-11.807 0.516,-2.698 0.916,-3.767 2.167,-5.793 0.735,-1.191 2.42,-6.25 2.84,-8.527 0.541,-2.933 1.752,-6.748 2.523,-7.951 0.325,-0.507 0.803,-1.726 1.062,-2.709 0.26,-0.983 0.807,-2.513 1.217,-3.4 0.41,-0.887 1.195,-3.183 1.745,-5.101 0.549,-1.919 1.279,-4.029 1.621,-4.69 0.342,-0.661 0.995,-2.777 1.453,-4.702 0.457,-1.926 1.098,-4.017 1.424,-4.647 0.326,-0.631 0.935,-2.435 1.352,-4.01 0.418,-1.575 1.399,-4.48 2.18,-6.456 3.431,-8.677 3.243,-11.895 -0.833,-14.227 -1.181,-0.676 -2.244,-1.384 -2.361,-1.574 -0.117,-0.189 -0.796,-0.464 -1.509,-0.61 -0.712,-0.146 -2.699,-0.699 -4.416,-1.23 -3.688,-1.142 -8.265,-1.323 -9.222,-0.366"
       id="path4604"
       style="fill:#d6d43a;fill-opacity:1" />
    <path
       d="m 206.59,263.598 c -1.895,0.592 -3.71,2.784 -4.806,5.806 -0.548,1.51 -1.46,3.537 -2.027,4.505 -1.281,2.186 -3.183,7.73 -4,11.66 -0.34,1.633 -0.955,3.703 -1.368,4.6 -0.412,0.897 -1.3,3.035 -1.973,4.751 -0.673,1.716 -1.505,3.549 -1.849,4.074 -0.344,0.525 -0.805,2.271 -1.025,3.88 -0.219,1.609 -0.676,3.466 -1.015,4.126 -1.106,2.153 -4.209,11.128 -4.919,14.227 -0.382,1.665 -0.968,3.465 -1.303,4 -0.335,0.535 -1.004,2.305 -1.487,3.932 -0.482,1.627 -1.127,3.341 -1.433,3.808 -0.306,0.467 -0.944,2.532 -1.417,4.588 -0.515,2.237 -1.173,4.05 -1.637,4.514 -1.939,1.939 -3.251,9.923 -1.874,11.398 4.303,4.607 13.139,4.937 15.169,0.567 1.607,-3.46 1.909,-4.241 2.949,-7.634 0.574,-1.87 1.292,-3.85 1.597,-4.4 0.305,-0.55 0.851,-2.17 1.212,-3.6 0.747,-2.95 2.18,-6.985 3.838,-10.8 0.621,-1.43 1.602,-4.443 2.179,-6.695 0.577,-2.252 1.775,-5.852 2.663,-8 0.888,-2.148 1.958,-5.255 2.378,-6.905 0.835,-3.278 3.008,-9.185 4.811,-13.075 0.631,-1.361 1.147,-3.003 1.147,-3.65 0,-0.646 0.286,-1.962 0.636,-2.925 0.349,-0.962 0.967,-2.83 1.372,-4.15 0.406,-1.32 1.29,-3.93 1.965,-5.8 1.241,-3.436 1.936,-7.931 1.493,-9.659 -0.629,-2.458 -7.414,-4.349 -11.276,-3.143"
       id="path0"
       style="fill:#d6d43a;fill-opacity:1" />
    <path
       id="path2"
       d="M198.004 30.357 C 196.414 30.800,196.173 35.233,197.640 37.039 C 197.836 37.281,198.372 38.986,198.831 40.828 C 199.289 42.669,200.078 45.172,200.585 46.388 C 201.091 47.605,201.806 50.106,202.174 51.947 C 202.542 53.788,203.087 55.678,203.384 56.147 C 203.681 56.616,204.304 58.406,204.767 60.124 C 205.231 61.842,206.037 64.092,206.557 65.124 C 207.078 66.156,207.724 68.080,207.994 69.400 C 208.263 70.720,208.897 72.790,209.403 74.000 C 209.910 75.210,210.453 77.190,210.612 78.400 C 210.770 79.610,211.408 81.680,212.031 83.000 C 212.653 84.320,213.478 86.840,213.863 88.600 C 214.249 90.360,214.954 92.376,215.430 93.080 C 215.951 93.849,216.477 95.570,216.748 97.396 C 217.007 99.135,217.533 100.895,217.979 101.516 C 218.408 102.112,218.962 103.770,219.212 105.200 C 219.461 106.630,220.203 109.029,220.861 110.531 C 221.518 112.032,222.319 114.522,222.640 116.063 C 222.961 117.604,223.577 119.346,224.007 119.933 C 224.438 120.520,224.960 121.900,225.167 123.000 C 226.008 127.477,228.035 128.717,230.400 126.200 C 230.917 125.650,231.508 125.200,231.715 125.200 C 232.108 125.200,236.051 122.404,238.332 120.507 C 239.064 119.898,240.092 119.173,240.616 118.895 C 241.140 118.618,242.052 117.943,242.643 117.395 C 243.233 116.848,243.851 116.400,244.015 116.400 C 244.179 116.400,245.184 115.680,246.249 114.800 C 247.314 113.920,248.406 113.200,248.677 113.200 C 248.947 113.200,249.834 112.480,250.648 111.600 C 251.462 110.720,252.349 110.000,252.618 110.000 C 252.888 110.000,253.403 109.550,253.763 109.000 C 254.124 108.450,254.683 108.000,255.007 108.000 C 255.331 108.000,256.713 107.100,258.078 106.000 C 259.443 104.900,260.764 104.000,261.012 104.000 C 261.261 104.000,261.704 103.553,261.996 103.007 C 262.289 102.460,262.904 101.896,263.364 101.752 C 264.213 101.487,264.728 101.106,269.000 97.585 C 270.320 96.497,271.612 95.606,271.871 95.604 C 272.130 95.602,272.688 95.160,273.111 94.622 C 273.534 94.084,274.537 93.331,275.340 92.948 C 276.143 92.565,276.800 92.107,276.800 91.931 C 276.800 91.754,277.526 91.152,278.414 90.591 C 279.301 90.031,280.342 89.264,280.727 88.886 C 281.479 88.148,284.805 85.661,287.400 83.896 C 288.280 83.298,289.900 82.084,291.000 81.200 C 292.100 80.316,293.715 79.099,294.590 78.496 C 295.464 77.893,296.698 76.815,297.331 76.100 C 297.965 75.385,298.824 74.800,299.241 74.800 C 299.659 74.800,300.000 74.531,300.000 74.202 C 300.000 73.873,300.765 73.243,301.700 72.801 C 302.635 72.360,303.710 71.504,304.089 70.899 C 304.467 70.295,305.006 69.485,305.286 69.100 C 305.729 68.492,305.574 68.192,304.107 66.809 C 302.234 65.045,302.014 65.048,299.314 66.877 C 298.387 67.505,296.769 68.179,295.719 68.376 C 294.507 68.602,293.608 69.037,293.256 69.566 C 292.952 70.025,292.490 70.400,292.230 70.400 C 291.969 70.400,290.866 70.967,289.778 71.660 C 288.690 72.352,286.900 73.286,285.800 73.734 C 284.700 74.182,283.170 75.031,282.400 75.621 C 281.630 76.211,280.550 76.828,280.000 76.993 C 279.450 77.157,278.640 77.611,278.200 78.002 C 277.760 78.392,276.410 79.207,275.200 79.812 C 273.990 80.417,272.775 81.233,272.500 81.625 C 272.224 82.016,271.494 82.447,270.878 82.583 C 270.261 82.718,268.879 83.453,267.808 84.215 C 266.736 84.977,265.621 85.600,265.330 85.600 C 265.038 85.600,264.432 85.968,263.982 86.418 C 263.532 86.868,262.317 87.700,261.282 88.267 C 260.247 88.834,258.950 89.706,258.400 90.204 C 257.850 90.703,257.011 91.227,256.536 91.371 C 256.060 91.514,255.383 92.072,255.030 92.610 C 254.677 93.149,253.716 93.936,252.894 94.358 C 252.072 94.781,250.871 95.683,250.225 96.363 C 249.579 97.044,248.881 97.600,248.674 97.600 C 248.289 97.600,245.819 99.571,243.969 101.356 C 243.402 101.903,242.464 102.469,241.884 102.615 C 241.304 102.760,240.418 103.270,239.915 103.748 C 233.714 109.636,232.207 108.786,228.387 97.244 C 227.324 94.030,226.184 90.590,225.854 89.600 C 225.524 88.610,224.957 86.540,224.594 85.000 C 224.232 83.460,223.698 81.660,223.408 81.000 C 223.119 80.340,222.394 78.360,221.797 76.600 C 221.201 74.840,220.282 72.566,219.756 71.546 C 219.230 70.526,218.800 69.480,218.800 69.221 C 218.800 68.962,218.363 67.817,217.830 66.675 C 216.320 63.447,213.581 56.852,212.646 54.192 C 212.181 52.868,211.423 51.158,210.962 50.392 C 210.501 49.627,209.884 48.370,209.589 47.600 C 209.295 46.830,208.565 45.628,207.966 44.930 C 207.367 44.231,206.747 43.061,206.588 42.330 C 206.429 41.598,205.964 40.370,205.554 39.600 C 205.144 38.830,204.425 37.255,203.955 36.100 C 203.486 34.945,202.947 34.000,202.757 34.000 C 202.568 34.000,201.957 33.100,201.400 32.000 C 200.365 29.957,200.027 29.794,198.004 30.357 M104.529 64.678 C 103.172 64.943,102.724 65.790,102.511 68.496 C 102.156 72.999,105.307 91.863,107.098 95.956 C 107.424 96.702,107.872 98.502,108.093 99.956 C 108.314 101.410,108.906 104.220,109.409 106.200 C 109.911 108.180,110.608 111.150,110.956 112.800 C 112.027 117.862,114.604 125.905,115.955 128.400 C 116.372 129.170,116.842 130.430,116.999 131.200 C 117.156 131.970,117.714 133.465,118.238 134.523 C 119.649 137.372,120.508 141.083,120.213 143.051 C 119.754 146.117,120.300 146.031,100.479 146.165 C 83.877 146.277,75.369 146.708,64.800 147.969 C 59.089 148.651,50.763 149.561,47.635 149.846 C 40.355 150.509,36.000 152.354,36.000 154.776 C 36.000 157.092,36.325 157.120,64.800 157.241 C 140.687 157.563,137.786 157.666,137.362 154.653 C 136.946 151.702,135.989 148.253,135.009 146.183 C 134.482 145.069,133.834 143.267,133.569 142.179 C 133.304 141.091,132.839 139.911,132.535 139.559 C 132.231 139.206,131.790 137.856,131.554 136.559 C 131.318 135.261,130.767 133.300,130.329 132.200 C 129.891 131.100,128.992 128.504,128.331 126.432 C 127.670 124.360,126.884 122.290,126.584 121.832 C 126.285 121.374,125.671 119.419,125.220 117.487 C 124.770 115.554,124.128 113.557,123.795 113.048 C 123.461 112.539,122.919 111.090,122.590 109.827 C 122.262 108.565,121.537 106.535,120.979 105.317 C 120.422 104.098,119.687 101.818,119.347 100.251 C 119.006 98.683,118.294 96.563,117.764 95.541 C 117.234 94.519,116.797 93.349,116.794 92.941 C 116.786 91.862,115.630 88.702,114.980 87.980 C 114.673 87.639,113.981 85.499,113.444 83.224 C 112.906 80.949,112.277 78.971,112.045 78.828 C 111.514 78.500,110.590 75.910,110.218 73.706 C 110.062 72.781,109.594 71.592,109.179 71.065 C 108.765 70.537,108.217 69.227,107.963 68.153 C 107.052 64.300,106.959 64.206,104.529 64.678 M364.545 147.737 C 363.475 148.472,361.924 149.296,361.097 149.569 C 360.270 149.841,359.418 150.392,359.204 150.793 C 358.989 151.194,357.956 151.950,356.907 152.475 C 355.858 152.999,354.513 153.916,353.918 154.514 C 353.323 155.111,352.580 155.600,352.267 155.600 C 351.954 155.600,351.451 155.897,351.149 156.261 C 350.223 157.378,346.682 159.846,344.179 161.120 C 342.870 161.786,341.573 162.706,341.297 163.165 C 341.020 163.624,340.627 164.000,340.423 164.000 C 339.888 164.000,333.948 167.657,332.078 169.139 C 331.202 169.832,330.314 170.400,330.104 170.400 C 329.895 170.400,329.381 170.786,328.962 171.258 C 328.543 171.730,327.449 172.452,326.532 172.863 C 325.614 173.273,324.804 173.757,324.732 173.938 C 324.604 174.255,321.918 176.114,317.991 178.600 C 314.114 181.056,312.561 182.150,311.099 183.458 C 310.273 184.196,309.245 184.800,308.814 184.800 C 308.384 184.800,307.674 185.184,307.237 185.652 C 306.800 186.121,306.089 186.706,305.657 186.952 C 305.224 187.199,304.030 187.989,303.002 188.709 C 301.975 189.428,300.429 190.377,299.567 190.817 C 298.705 191.256,298.000 191.789,298.000 192.000 C 298.000 192.211,297.292 192.745,296.426 193.187 C 295.561 193.628,294.382 194.425,293.807 194.958 C 293.233 195.491,292.143 196.221,291.386 196.580 C 290.630 196.939,289.826 197.578,289.600 198.000 C 289.374 198.422,288.607 199.047,287.895 199.388 C 285.971 200.310,284.423 202.820,285.430 203.383 C 285.840 203.612,286.631 204.252,287.188 204.804 C 288.921 206.523,292.144 209.061,293.429 209.718 C 294.105 210.064,294.901 210.640,295.199 210.998 C 295.496 211.357,296.665 212.264,297.796 213.015 C 298.927 213.766,300.886 215.285,302.150 216.390 C 303.413 217.496,304.571 218.400,304.723 218.400 C 304.876 218.400,305.788 219.120,306.751 220.000 C 307.713 220.880,308.748 221.600,309.049 221.600 C 309.351 221.600,310.273 222.194,311.099 222.919 C 311.924 223.645,313.950 225.217,315.600 226.412 C 317.250 227.607,318.835 228.903,319.123 229.292 C 319.410 229.682,319.910 230.000,320.233 230.000 C 320.557 230.000,321.402 230.533,322.111 231.185 C 324.477 233.361,326.901 235.225,328.759 236.301 C 329.772 236.887,330.835 237.689,331.123 238.083 C 331.410 238.478,331.844 238.800,332.086 238.800 C 332.844 238.800,336.823 242.012,337.263 242.979 C 337.494 243.485,338.475 244.295,339.443 244.778 C 340.411 245.262,341.377 245.983,341.590 246.381 C 341.802 246.778,342.657 247.380,343.488 247.718 C 344.826 248.262,348.304 250.581,350.011 252.068 C 350.347 252.361,351.382 253.098,352.311 253.706 C 353.240 254.314,354.000 254.967,354.000 255.157 C 354.000 255.347,354.546 255.729,355.214 256.006 C 355.881 256.282,356.743 256.909,357.128 257.400 C 360.011 261.065,365.886 260.749,364.847 256.985 C 364.268 254.888,342.699 232.031,339.884 230.531 C 339.216 230.176,336.448 227.738,332.129 223.700 C 331.129 222.765,330.146 222.000,329.945 222.000 C 329.745 222.000,329.409 221.550,329.200 221.000 C 328.991 220.450,328.521 220.000,328.156 220.000 C 327.792 220.000,325.787 218.560,323.703 216.800 C 321.618 215.040,319.695 213.600,319.428 213.600 C 319.162 213.600,318.339 213.060,317.600 212.400 C 316.861 211.740,316.124 211.200,315.964 211.200 C 315.803 211.200,314.793 210.505,313.719 209.656 C 312.645 208.807,311.313 207.862,310.761 207.556 C 306.064 204.957,305.137 200.490,308.878 198.485 C 309.992 197.888,311.359 196.905,311.917 196.300 C 312.476 195.695,313.230 195.200,313.594 195.200 C 313.958 195.200,314.873 194.640,315.628 193.956 C 316.383 193.271,317.720 192.396,318.600 192.012 C 319.480 191.627,320.804 190.747,321.542 190.056 C 322.281 189.365,323.065 188.800,323.285 188.800 C 323.505 188.800,324.181 188.395,324.787 187.900 C 325.393 187.405,326.679 186.503,327.645 185.896 C 330.924 183.832,332.702 182.488,336.504 179.195 C 337.772 178.098,338.981 177.200,339.191 177.200 C 339.401 177.200,340.203 176.570,340.973 175.800 C 341.743 175.030,342.643 174.400,342.973 174.400 C 343.302 174.400,343.770 174.030,344.012 173.577 C 344.254 173.125,344.787 172.630,345.196 172.477 C 345.888 172.219,353.929 165.152,357.915 161.300 C 358.882 160.365,359.915 159.600,360.210 159.600 C 360.505 159.600,360.858 159.249,360.994 158.820 C 361.130 158.391,361.864 157.655,362.626 157.184 C 363.387 156.714,364.193 155.986,364.417 155.568 C 364.641 155.150,365.346 154.538,365.984 154.209 C 366.621 153.879,367.254 153.260,367.389 152.833 C 367.525 152.407,368.257 151.691,369.018 151.243 C 370.212 150.538,370.400 150.218,370.400 148.893 C 370.400 145.966,367.853 145.463,364.545 147.737 M55.000 251.497 C 46.498 251.562,41.911 251.745,41.341 252.043 L 40.481 252.492 41.268 253.825 C 41.928 254.943,42.358 255.202,43.927 255.421 C 44.957 255.565,47.420 256.037,49.400 256.470 C 51.380 256.904,54.170 257.417,55.600 257.611 C 57.030 257.805,60.270 258.331,62.800 258.780 C 65.330 259.229,70.190 259.869,73.600 260.202 C 77.010 260.535,80.970 260.981,82.400 261.192 C 88.068 262.030,91.951 262.200,105.466 262.200 C 119.123 262.200,119.565 262.224,120.660 263.039 C 122.394 264.328,122.707 266.369,121.665 269.578 C 119.155 277.306,118.260 280.096,117.363 282.990 C 116.819 284.744,116.141 286.544,115.857 286.990 C 115.299 287.864,114.981 289.030,113.456 295.800 C 111.966 302.417,110.849 307.909,110.424 310.703 C 110.215 312.080,109.960 313.342,109.857 313.507 C 109.610 313.907,108.529 322.196,108.217 326.081 C 108.081 327.775,107.618 330.184,107.188 331.434 C 106.370 333.812,105.831 345.553,106.508 346.238 C 107.250 346.988,109.923 343.151,110.351 340.724 C 110.582 339.412,111.216 337.398,111.760 336.248 C 112.722 334.215,113.030 333.119,114.005 328.263 C 114.263 326.978,114.881 325.327,115.379 324.594 C 115.977 323.711,116.377 322.351,116.559 320.570 C 116.711 319.090,117.263 316.961,117.786 315.839 C 118.309 314.718,118.948 312.633,119.207 311.207 C 119.465 309.781,120.115 307.451,120.650 306.029 C 121.185 304.608,121.973 302.073,122.401 300.397 C 122.829 298.721,123.533 296.548,123.967 295.568 C 124.400 294.588,124.953 292.530,125.196 290.993 C 125.439 289.457,125.975 287.480,126.387 286.600 C 126.800 285.720,127.608 283.203,128.184 281.006 C 128.760 278.810,129.495 276.609,129.818 276.116 C 130.141 275.623,130.694 273.460,131.047 271.310 C 131.400 269.159,132.013 266.680,132.409 265.800 C 132.805 264.920,133.516 262.670,133.989 260.800 C 135.141 256.241,135.436 255.228,136.049 253.706 C 136.384 252.876,136.433 252.275,136.186 252.033 C 135.803 251.658,81.250 251.298,55.000 251.497 M228.625 281.552 C 228.297 282.186,227.588 283.229,227.048 283.870 C 226.431 284.604,225.846 286.103,225.471 287.915 C 225.097 289.725,224.511 291.227,223.897 291.958 C 223.169 292.823,222.848 293.809,222.643 295.807 C 222.463 297.566,221.966 299.272,221.204 300.747 C 220.564 301.986,219.739 304.350,219.370 306.000 C 219.001 307.650,218.362 309.477,217.950 310.061 C 217.539 310.644,216.934 312.519,216.607 314.228 C 216.266 316.012,215.690 317.689,215.255 318.167 C 214.838 318.625,214.203 320.352,213.843 322.004 C 213.483 323.656,212.804 325.636,212.334 326.404 C 211.437 327.870,211.025 329.221,210.410 332.711 C 210.205 333.873,209.670 335.340,209.219 335.973 C 208.769 336.606,208.398 337.456,208.396 337.862 C 208.389 338.968,207.330 342.249,206.225 344.585 C 205.686 345.723,204.940 347.902,204.566 349.427 C 204.192 350.952,203.643 352.483,203.346 352.828 C 202.753 353.518,202.000 356.971,202.000 359.000 C 202.000 359.811,201.584 360.814,200.878 361.702 C 200.006 362.800,199.558 364.119,198.864 367.635 L 197.972 372.157 199.086 373.257 C 200.714 374.865,202.949 374.164,203.725 371.802 C 204.021 370.901,204.626 370.031,205.107 369.813 C 205.682 369.553,206.112 368.800,206.422 367.509 C 206.675 366.454,207.311 364.959,207.835 364.186 C 208.359 363.414,209.175 361.931,209.647 360.891 C 210.119 359.851,210.932 358.491,211.453 357.869 C 211.974 357.247,212.400 356.452,212.400 356.102 C 212.400 355.751,212.913 354.550,213.541 353.432 C 214.169 352.315,214.904 350.720,215.175 349.890 C 215.447 349.059,216.087 347.882,216.599 347.275 C 217.110 346.667,217.840 345.097,218.221 343.785 C 218.602 342.473,219.314 340.860,219.804 340.200 C 220.294 339.540,220.822 338.460,220.977 337.800 C 221.132 337.140,221.805 335.522,222.472 334.204 C 223.139 332.887,224.038 330.637,224.468 329.204 C 224.899 327.772,225.523 326.006,225.854 325.280 C 226.185 324.554,226.820 322.844,227.264 321.480 C 227.708 320.116,228.301 318.460,228.580 317.800 C 228.860 317.140,229.502 315.070,230.006 313.200 C 230.511 311.330,231.227 309.170,231.596 308.400 C 231.965 307.630,232.485 305.985,232.752 304.745 C 233.685 300.407,237.547 299.127,240.126 302.300 C 240.529 302.795,241.046 303.200,241.276 303.200 C 241.506 303.200,242.279 303.695,242.994 304.300 C 243.709 304.905,244.903 305.880,245.647 306.467 C 246.391 307.054,247.969 308.314,249.152 309.267 C 250.336 310.220,251.900 311.400,252.627 311.890 C 253.354 312.379,254.095 313.026,254.274 313.329 C 254.453 313.631,255.365 314.380,256.300 314.992 C 257.235 315.605,258.000 316.272,258.000 316.474 C 258.000 316.676,258.675 317.121,259.500 317.462 C 261.490 318.287,266.412 321.565,266.670 322.237 C 266.782 322.530,267.262 322.885,267.737 323.025 C 268.212 323.166,269.230 323.775,270.000 324.379 C 270.770 324.982,272.030 325.795,272.800 326.185 C 273.570 326.575,274.561 327.223,275.002 327.625 C 275.443 328.027,276.883 328.926,278.202 329.623 C 279.521 330.320,280.870 331.119,281.200 331.398 C 281.530 331.677,282.210 332.030,282.711 332.183 C 283.212 332.336,283.907 332.897,284.257 333.430 C 284.606 333.964,285.260 334.400,285.711 334.400 C 286.639 334.400,290.000 336.257,290.000 336.769 C 290.000 336.954,290.836 337.316,291.859 337.573 C 292.927 337.842,294.160 338.513,294.759 339.150 C 295.331 339.759,296.414 340.471,297.164 340.731 C 297.915 340.991,299.130 341.662,299.865 342.223 C 300.601 342.784,301.787 343.438,302.501 343.678 C 303.215 343.917,304.078 344.352,304.418 344.644 C 304.909 345.067,305.345 345.081,306.544 344.713 C 309.872 343.691,309.239 341.633,304.401 337.737 C 302.532 336.232,300.655 334.687,300.231 334.305 C 299.806 333.922,299.160 333.514,298.794 333.398 C 298.428 333.282,297.874 332.712,297.564 332.132 C 297.254 331.551,296.412 330.831,295.694 330.530 C 294.975 330.230,292.733 328.638,290.712 326.992 C 288.690 325.346,286.815 324.000,286.545 324.000 C 286.275 324.000,285.939 323.637,285.798 323.193 C 285.657 322.749,284.935 322.133,284.193 321.823 C 283.451 321.513,282.611 320.886,282.326 320.430 C 282.041 319.973,281.611 319.600,281.372 319.600 C 281.132 319.600,280.140 318.866,279.168 317.969 C 278.196 317.071,276.827 316.084,276.127 315.774 C 275.426 315.465,274.616 314.882,274.327 314.479 C 274.037 314.076,273.215 313.404,272.499 312.987 C 271.784 312.569,271.096 311.904,270.971 311.509 C 270.846 311.114,270.212 310.516,269.562 310.181 C 268.913 309.845,267.891 309.123,267.291 308.577 C 266.691 308.031,264.760 306.560,263.000 305.308 C 261.240 304.057,259.565 302.710,259.277 302.316 C 258.990 301.922,258.487 301.600,258.159 301.600 C 257.832 301.600,257.078 301.105,256.485 300.500 C 255.892 299.895,254.834 299.040,254.134 298.600 C 252.823 297.775,247.124 293.289,245.000 291.409 C 244.340 290.824,242.990 289.816,242.000 289.169 C 239.061 287.245,237.438 286.025,236.776 285.239 C 236.433 284.832,235.589 284.208,234.900 283.852 C 234.212 283.496,233.410 282.864,233.118 282.447 C 232.698 281.848,230.041 280.400,229.361 280.400 C 229.284 280.400,228.952 280.918,228.625 281.552 "
       stroke="none"
       fill="#87c145"
       fill-rule="evenodd"
       style="fill:#87c145;fill-opacity:1" />
    <path
       id="path4"
       d="m 197.735,27.973 c -4.301,1.953 -4.365,3.154 -0.76,14.227 0.502,1.54 1.873,5.77 3.047,9.4 1.174,3.63 2.549,7.711 3.056,9.068 0.507,1.358 0.922,2.762 0.922,3.12 0,0.359 0.517,2.038 1.15,3.732 0.632,1.694 1.336,3.71 1.564,4.48 1.658,5.588 3.914,12.465 4.534,13.814 0.407,0.888 0.925,2.598 1.152,3.8 0.226,1.202 0.935,3.716 1.575,5.586 0.64,1.87 1.999,6.1 3.021,9.4 1.021,3.3 2.22,6.9 2.664,8 0.444,1.1 1.047,3.08 1.341,4.4 0.293,1.32 0.984,3.408 1.535,4.64 0.55,1.232 1.212,3.032 1.469,4 1.274,4.788 3.558,5.702 6.9,2.76 1,-0.88 1.97,-1.602 2.156,-1.605 0.294,-0.004 3.017,-2.033 7.139,-5.32 0.66,-0.526 1.65,-1.189 2.2,-1.474 1.072,-0.554 4.141,-2.876 6.363,-4.813 0.749,-0.653 1.594,-1.188 1.877,-1.188 0.283,0 0.766,-0.358 1.072,-0.796 0.307,-0.438 1.116,-1.203 1.798,-1.7 3.838,-2.798 6.085,-4.468 7.69,-5.713 0.99,-0.769 2.79,-2.055 4,-2.859 1.21,-0.804 3.427,-2.514 4.927,-3.801 1.5,-1.286 3.255,-2.611 3.9,-2.945 0.645,-0.334 1.173,-0.743 1.173,-0.91 0,-0.167 0.585,-0.649 1.3,-1.07 1.348,-0.795 2.559,-1.675 8.3,-6.033 1.87,-1.42 5.47,-4.102 8,-5.961 2.53,-1.859 5.14,-3.849 5.8,-4.423 2.012,-1.75 5.546,-4.432 6.527,-4.953 0.51,-0.271 1.447,-1.313 2.082,-2.315 l 1.155,-1.821 -0.982,-1.288 c -0.54,-0.708 -0.982,-1.468 -0.982,-1.688 0,-2.597 -6.962,-2.596 -9.942,10e-4 -0.362,0.316 -1.288,0.777 -2.058,1.025 -0.77,0.248 -2.48,1.17 -3.8,2.049 -1.32,0.879 -2.59,1.599 -2.822,1.6 -0.233,0 -1.027,0.447 -1.765,0.991 -0.738,0.545 -1.988,1.197 -2.778,1.45 -0.789,0.252 -1.795,0.782 -2.235,1.177 -0.44,0.396 -1.97,1.34 -3.4,2.099 -4.957,2.632 -6.601,3.567 -6.8,3.871 -0.11,0.168 -1.01,0.71 -2,1.204 -0.99,0.495 -2.16,1.221 -2.6,1.615 -1.15,1.028 -5.866,4.19 -6.746,4.522 C 258.228,87.791 252,92 252,92.365 c 0,0.186 -0.525,0.556 -1.168,0.822 -0.642,0.266 -1.7,1.052 -2.35,1.748 -1.093,1.169 -4.738,4.041 -7.8,6.146 -0.705,0.485 -2.237,1.638 -3.403,2.562 l -2.121,1.682 -1.054,-0.787 c -1.853,-1.383 -2.513,-2.679 -3.284,-6.44 -0.414,-2.021 -1.308,-5.114 -1.986,-6.873 -0.679,-1.76 -1.234,-3.463 -1.234,-3.784 0,-0.923 -3.145,-10.227 -3.993,-11.812 -0.42,-0.786 -1.204,-2.691 -1.742,-4.233 -0.538,-1.542 -1.345,-3.432 -1.792,-4.2 -0.448,-0.768 -0.94,-2.116 -1.094,-2.996 -0.153,-0.88 -0.695,-2.41 -1.203,-3.4 -0.509,-0.99 -1.269,-2.61 -1.689,-3.6 -1.885,-4.441 -2.776,-6.398 -4.181,-9.189 -0.829,-1.644 -1.506,-3.157 -1.506,-3.362 0,-0.206 -0.422,-0.93 -0.938,-1.611 -0.516,-0.681 -1.349,-2.498 -1.851,-4.038 -0.502,-1.54 -1.519,-3.814 -2.262,-5.052 C 204.607,32.709 204,31.49 204,31.239 c 0,-0.735 -3.24,-4.04 -3.951,-4.03 -0.357,0.005 -1.398,0.349 -2.314,0.764 M 201.4,32 c 0.557,1.1 1.168,2 1.357,2 0.19,0 0.729,0.945 1.198,2.1 0.47,1.155 1.189,2.73 1.599,3.5 0.41,0.77 0.875,1.998 1.034,2.73 0.159,0.731 0.779,1.901 1.378,2.6 0.599,0.698 1.329,1.9 1.623,2.67 0.295,0.77 0.912,2.027 1.373,2.792 0.461,0.766 1.219,2.476 1.684,3.8 0.935,2.66 3.674,9.255 5.184,12.483 0.533,1.142 0.97,2.287 0.97,2.546 0,0.259 0.43,1.305 0.956,2.325 0.526,1.02 1.445,3.294 2.041,5.054 0.597,1.76 1.322,3.74 1.611,4.4 0.29,0.66 0.824,2.46 1.186,4 0.363,1.54 0.93,3.61 1.26,4.6 0.33,0.99 1.47,4.43 2.533,7.644 2.303,6.957 2.728,7.82 4.564,9.256 1.938,1.516 2.848,1.157 6.964,-2.752 0.503,-0.478 1.389,-0.988 1.969,-1.133 0.58,-0.146 1.518,-0.712 2.085,-1.259 1.85,-1.785 4.32,-3.756 4.705,-3.756 0.207,0 0.905,-0.556 1.551,-1.237 0.646,-0.68 1.847,-1.582 2.669,-2.005 0.822,-0.422 1.783,-1.209 2.136,-1.748 0.353,-0.538 1.03,-1.096 1.506,-1.239 0.475,-0.144 1.314,-0.668 1.864,-1.167 0.55,-0.498 1.847,-1.37 2.882,-1.937 1.035,-0.567 2.25,-1.399 2.7,-1.849 0.45,-0.45 1.056,-0.818 1.348,-0.818 0.291,0 1.406,-0.623 2.478,-1.385 1.071,-0.762 2.453,-1.497 3.07,-1.632 0.616,-0.136 1.346,-0.567 1.622,-0.958 0.275,-0.392 1.49,-1.208 2.7,-1.813 1.21,-0.605 2.56,-1.42 3,-1.81 0.44,-0.391 1.25,-0.845 1.8,-1.009 0.55,-0.165 1.63,-0.782 2.4,-1.372 0.77,-0.59 2.3,-1.439 3.4,-1.887 1.1,-0.448 2.89,-1.382 3.978,-2.074 1.088,-0.693 2.191,-1.26 2.452,-1.26 0.26,0 0.722,-0.375 1.026,-0.834 0.352,-0.529 1.251,-0.964 2.463,-1.19 1.05,-0.197 2.668,-0.871 3.595,-1.499 2.7,-1.829 2.92,-1.832 4.793,-0.068 1.467,1.383 1.622,1.683 1.179,2.291 -0.28,0.385 -0.819,1.195 -1.197,1.799 -0.379,0.605 -1.454,1.461 -2.389,1.902 -0.935,0.442 -1.7,1.072 -1.7,1.401 0,0.329 -0.341,0.598 -0.759,0.598 -0.417,0 -1.276,0.585 -1.91,1.3 -0.633,0.715 -1.867,1.793 -2.741,2.396 -0.875,0.603 -2.49,1.82 -3.59,2.704 -1.1,0.884 -2.72,2.098 -3.6,2.696 -2.595,1.765 -5.921,4.252 -6.673,4.99 -0.385,0.378 -1.426,1.145 -2.313,1.705 -0.888,0.561 -1.614,1.163 -1.614,1.34 0,0.176 -0.657,0.634 -1.46,1.017 -0.803,0.383 -1.806,1.136 -2.229,1.674 -0.423,0.538 -0.981,0.98 -1.24,0.982 -0.259,0.002 -1.551,0.893 -2.871,1.981 -4.272,3.521 -4.787,3.902 -5.636,4.167 -0.46,0.144 -1.075,0.708 -1.368,1.255 -0.292,0.546 -0.735,0.993 -0.984,0.993 -0.248,0 -1.569,0.9 -2.934,2 -1.365,1.1 -2.747,2 -3.071,2 -0.324,0 -0.883,0.45 -1.244,1 -0.36,0.55 -0.875,1 -1.145,1 -0.269,0 -1.156,0.72 -1.97,1.6 -0.814,0.88 -1.701,1.6 -1.971,1.6 -0.271,0 -1.363,0.72 -2.428,1.6 -1.065,0.88 -2.07,1.6 -2.234,1.6 -0.164,0 -0.782,0.448 -1.372,0.995 -0.591,0.548 -1.503,1.223 -2.027,1.5 -0.524,0.278 -1.552,1.003 -2.284,1.612 -2.281,1.897 -6.224,4.693 -6.617,4.693 -0.207,0 -0.798,0.45 -1.315,1 -2.365,2.517 -4.392,1.277 -5.233,-3.2 -0.207,-1.1 -0.729,-2.48 -1.16,-3.067 -0.43,-0.587 -1.046,-2.329 -1.367,-3.87 -0.321,-1.541 -1.122,-4.031 -1.779,-5.532 -0.658,-1.502 -1.4,-3.901 -1.649,-5.331 -0.25,-1.43 -0.804,-3.088 -1.233,-3.684 -0.446,-0.621 -0.972,-2.381 -1.231,-4.12 -0.271,-1.826 -0.797,-3.547 -1.318,-4.316 -0.476,-0.704 -1.181,-2.72 -1.567,-4.48 -0.385,-1.76 -1.21,-4.28 -1.832,-5.6 -0.623,-1.32 -1.261,-3.39 -1.419,-4.6 -0.159,-1.21 -0.702,-3.19 -1.209,-4.4 -0.506,-1.21 -1.14,-3.28 -1.409,-4.6 -0.27,-1.32 -0.916,-3.244 -1.437,-4.276 -0.52,-1.032 -1.326,-3.282 -1.79,-5 -0.463,-1.718 -1.086,-3.508 -1.383,-3.977 -0.297,-0.469 -0.842,-2.359 -1.21,-4.2 -0.368,-1.841 -1.083,-4.342 -1.589,-5.559 -0.507,-1.216 -1.296,-3.719 -1.754,-5.56 -0.459,-1.842 -0.995,-3.547 -1.191,-3.789 -1.467,-1.806 -1.226,-6.239 0.364,-6.682 2.023,-0.563 2.361,-0.4 3.396,1.643 m -96.987,30.038 c -1.221,0.239 -2.236,0.799 -3.2,1.766 l -1.413,1.417 0.112,3.966 c 0.067,2.368 0.432,5.143 0.907,6.889 0.437,1.608 1.049,4.904 1.36,7.324 0.311,2.42 0.942,6.02 1.403,8 0.46,1.98 1.186,5.13 1.613,7 0.428,1.87 1.305,5.2 1.95,7.4 0.645,2.2 1.279,5.124 1.408,6.498 0.129,1.373 0.523,3.173 0.876,4 0.353,0.826 0.9,2.473 1.216,3.66 0.316,1.186 1.29,3.87 2.165,5.963 0.874,2.093 1.59,4.054 1.59,4.358 0,0.304 0.341,1.222 0.758,2.039 0.831,1.629 3.242,8.77 3.242,9.602 0,1.583 -2.349,1.814 -19,1.863 -10.274,0.03 -17.145,0.221 -19.2,0.533 -1.76,0.266 -5.54,0.662 -8.4,0.878 -7.605,0.576 -17.841,1.584 -18.175,1.79 -0.158,0.098 -2.704,0.465 -5.657,0.815 -13.564,1.609 -14.768,2.157 -14.768,6.716 v 2.576 l 1.7,0.633 c 0.935,0.348 2.33,0.726 3.1,0.84 3.625,0.536 98.305,1.03 100.126,0.522 2.252,-0.628 2.611,-3.47 0.851,-6.739 -0.312,-0.579 -0.85,-2.274 -1.196,-3.767 -0.346,-1.492 -0.879,-3.196 -1.184,-3.785 -0.632,-1.224 -2.885,-7.501 -3.443,-9.595 -0.611,-2.293 -2.036,-6.886 -2.668,-8.6 -1.51,-4.096 -5.286,-15.447 -5.288,-15.897 -0.002,-0.277 -0.292,-1.043 -0.646,-1.703 -0.734,-1.371 -2.623,-6.724 -3.772,-10.692 -0.779,-2.688 -1.728,-5.396 -2.421,-6.908 -0.202,-0.44 -0.797,-2.06 -1.323,-3.6 -0.526,-1.54 -1.313,-3.79 -1.75,-5 -0.436,-1.21 -0.975,-2.92 -1.197,-3.8 -0.575,-2.271 -3.87,-11.28 -4.859,-13.281 -0.456,-0.924 -0.83,-1.938 -0.83,-2.254 0,-0.475 -1.708,-1.966 -2.086,-1.821 -0.063,0.024 -0.918,0.201 -1.901,0.394 m 2.746,3.262 c 0.188,0.495 0.55,1.779 0.804,2.853 0.254,1.074 0.802,2.384 1.216,2.912 0.415,0.527 0.883,1.716 1.039,2.641 0.372,2.204 1.296,4.794 1.827,5.122 0.232,0.143 0.861,2.121 1.399,4.396 0.537,2.275 1.229,4.415 1.536,4.756 0.65,0.722 1.806,3.882 1.814,4.961 0.003,0.408 0.44,1.578 0.97,2.6 0.53,1.022 1.242,3.142 1.583,4.71 0.34,1.567 1.075,3.847 1.632,5.066 0.558,1.218 1.283,3.248 1.611,4.51 0.329,1.263 0.871,2.712 1.205,3.221 0.333,0.509 0.975,2.506 1.425,4.439 0.451,1.932 1.065,3.887 1.364,4.345 0.3,0.458 1.086,2.528 1.747,4.6 0.661,2.072 1.56,4.668 1.998,5.768 0.438,1.1 0.989,3.061 1.225,4.359 0.236,1.297 0.677,2.647 0.981,3 0.304,0.352 0.769,1.532 1.034,2.62 0.265,1.088 0.913,2.89 1.44,4.004 0.98,2.07 1.937,5.519 2.353,8.47 0.424,3.013 3.325,2.91 -72.562,2.588 C 36.325,157.12 36,157.092 36,154.776 c 0,-2.422 4.355,-4.267 11.635,-4.93 3.128,-0.285 11.454,-1.195 17.165,-1.877 10.569,-1.261 19.077,-1.692 35.679,-1.804 19.821,-0.134 19.275,-0.048 19.734,-3.114 0.295,-1.968 -0.564,-5.679 -1.975,-8.528 -0.524,-1.058 -1.082,-2.553 -1.239,-3.323 -0.157,-0.77 -0.627,-2.03 -1.044,-2.8 -1.351,-2.495 -3.928,-10.538 -4.999,-15.6 -0.348,-1.65 -1.045,-4.62 -1.547,-6.6 -0.503,-1.98 -1.095,-4.79 -1.316,-6.244 -0.221,-1.454 -0.669,-3.254 -0.995,-4 -1.791,-4.093 -4.942,-22.957 -4.587,-27.46 0.213,-2.706 0.661,-3.553 2.018,-3.818 1.849,-0.359 2.298,-0.253 2.63,0.622 M 367.2,143.528 c -1.162,0.527 -4.606,2.651 -5.142,3.172 -0.298,0.289 -1.198,0.866 -2,1.281 -0.802,0.415 -2.133,1.399 -2.959,2.187 -0.825,0.788 -1.747,1.432 -2.048,1.432 -0.47,0 -2.066,1.058 -7.051,4.672 -0.55,0.399 -2.62,1.706 -4.6,2.905 -1.98,1.199 -3.816,2.393 -4.08,2.653 -0.265,0.261 -2.245,1.593 -4.4,2.961 -2.156,1.369 -5.18,3.372 -6.72,4.452 -1.54,1.08 -3.43,2.403 -4.2,2.939 -0.77,0.537 -2.66,1.874 -4.2,2.972 -1.54,1.097 -3.706,2.526 -4.813,3.175 -1.107,0.649 -2.255,1.47 -2.549,1.825 -0.295,0.355 -0.713,0.646 -0.929,0.646 -0.217,0 -0.94,0.46 -1.608,1.022 -0.668,0.562 -2.134,1.48 -3.258,2.04 -1.124,0.56 -2.313,1.322 -2.643,1.692 -0.501,0.564 -2.991,2.304 -10.936,7.646 -0.49,0.33 -1.492,0.96 -2.224,1.4 -0.733,0.44 -2.009,1.34 -2.835,2 -0.826,0.66 -2.313,1.677 -3.305,2.261 -2.889,1.7 -2.915,3.487 -0.088,6.139 4.098,3.844 11.601,9.817 13.873,11.043 0.568,0.306 2.303,1.594 3.856,2.86 1.554,1.267 3.508,2.698 4.342,3.18 0.834,0.482 1.888,1.246 2.342,1.697 0.453,0.451 2.234,1.9 3.958,3.22 1.723,1.32 3.364,2.625 3.646,2.9 0.283,0.275 0.629,0.5 0.769,0.5 0.26,0 2.617,1.71 3.86,2.8 0.376,0.33 1.615,1.23 2.752,2 1.138,0.77 2.967,2.12 4.065,3 1.097,0.88 3.152,2.418 4.565,3.417 1.413,1 2.847,2.215 3.187,2.7 0.34,0.486 0.809,0.883 1.043,0.883 0.233,0 1.012,0.495 1.73,1.1 3.862,3.255 4.803,3.969 6.191,4.7 0.836,0.44 2.921,1.88 4.634,3.2 8.158,6.286 10.906,8.216 12.48,8.763 l 1.705,0.592 1.486,-1.606 c 3.342,-3.613 3.574,-5.382 1.041,-7.949 -0.76,-0.77 -5.286,-5.37 -10.059,-10.221 -4.773,-4.852 -10.928,-10.87 -13.678,-13.374 -2.75,-2.503 -5.09,-4.659 -5.2,-4.789 -0.605,-0.718 -8.787,-7.94 -9.762,-8.616 -0.634,-0.44 -1.712,-1.252 -2.396,-1.805 -1.266,-1.025 -4.647,-3.394 -7.412,-5.195 -4.322,-2.815 -5.967,-4.045 -7.384,-5.523 l -1.554,-1.621 0.609,-1.528 c 0.382,-0.96 1.125,-1.825 1.998,-2.328 0.765,-0.44 2.396,-1.475 3.626,-2.3 1.23,-0.825 2.415,-1.5 2.633,-1.5 0.218,0 0.632,-0.327 0.919,-0.727 0.288,-0.4 1.178,-1.075 1.978,-1.5 1.352,-0.718 8.197,-5.266 12.345,-8.2 0.99,-0.701 3.087,-2.421 4.66,-3.823 1.573,-1.403 3.036,-2.55 3.251,-2.55 0.215,0 0.616,-0.271 0.891,-0.602 0.275,-0.332 1.915,-1.594 3.644,-2.806 1.73,-1.212 4.65,-3.596 6.491,-5.298 3.996,-3.695 5.342,-4.895 10.209,-9.094 12.381,-10.683 13.128,-11.97 9.234,-15.9 -1.448,-1.462 -2.595,-1.799 -3.98,-1.172 m 2.72,3.352 c 1.079,1.079 0.581,3.488 -0.902,4.363 -0.761,0.448 -1.493,1.164 -1.629,1.59 -0.135,0.427 -0.768,1.046 -1.405,1.376 -0.638,0.329 -1.343,0.941 -1.567,1.359 -0.224,0.418 -1.03,1.146 -1.791,1.616 -0.762,0.471 -1.496,1.207 -1.632,1.636 -0.136,0.429 -0.489,0.78 -0.784,0.78 -0.295,0 -1.328,0.765 -2.295,1.7 -3.986,3.852 -12.027,10.919 -12.719,11.177 -0.409,0.153 -0.942,0.648 -1.184,1.1 -0.242,0.453 -0.71,0.823 -1.039,0.823 -0.33,0 -1.23,0.63 -2,1.4 -0.77,0.77 -1.572,1.4 -1.782,1.4 -0.21,0 -1.419,0.898 -2.687,1.995 -3.802,3.293 -5.58,4.637 -8.859,6.701 -0.966,0.607 -2.252,1.509 -2.858,2.004 -0.606,0.495 -1.282,0.9 -1.502,0.9 -0.22,0 -1.004,0.565 -1.743,1.256 -0.738,0.691 -2.062,1.571 -2.942,1.956 -0.88,0.384 -2.217,1.259 -2.972,1.944 -0.755,0.684 -1.67,1.244 -2.034,1.244 -0.364,0 -1.118,0.495 -1.677,1.1 -0.558,0.605 -1.925,1.588 -3.039,2.185 -3.741,2.005 -2.814,6.472 1.883,9.071 0.552,0.306 1.884,1.251 2.958,2.1 1.074,0.849 2.084,1.544 2.245,1.544 0.16,0 0.897,0.54 1.636,1.2 0.739,0.66 1.562,1.2 1.828,1.2 0.267,0 2.19,1.44 4.275,3.2 2.084,1.76 4.089,3.2 4.453,3.2 0.365,0 0.835,0.45 1.044,1 0.209,0.55 0.545,1 0.745,1 0.201,0 1.184,0.765 2.184,1.7 4.319,4.038 7.087,6.476 7.755,6.831 2.815,1.5 24.384,24.357 24.963,26.454 1.039,3.764 -4.836,4.08 -7.719,0.415 -0.385,-0.491 -1.247,-1.118 -1.914,-1.394 -0.668,-0.277 -1.214,-0.659 -1.214,-0.849 0,-0.19 -0.76,-0.843 -1.689,-1.451 -0.929,-0.608 -1.964,-1.345 -2.3,-1.638 -1.707,-1.487 -5.185,-3.806 -6.523,-4.35 -0.831,-0.338 -1.686,-0.94 -1.898,-1.337 -0.213,-0.398 -1.179,-1.119 -2.147,-1.603 -0.968,-0.483 -1.949,-1.293 -2.18,-1.799 -0.44,-0.967 -4.419,-4.179 -5.177,-4.179 -0.242,0 -0.676,-0.322 -0.963,-0.717 -0.288,-0.394 -1.351,-1.196 -2.364,-1.782 -1.858,-1.076 -4.282,-2.94 -6.648,-5.116 -0.709,-0.652 -1.554,-1.185 -1.878,-1.185 -0.323,0 -0.823,-0.318 -1.11,-0.708 -0.288,-0.389 -1.873,-1.685 -3.523,-2.88 -1.65,-1.195 -3.676,-2.767 -4.501,-3.493 -0.826,-0.725 -1.748,-1.319 -2.05,-1.319 -0.301,0 -1.336,-0.72 -2.298,-1.6 -0.963,-0.88 -1.875,-1.6 -2.028,-1.6 -0.152,0 -1.31,-0.904 -2.573,-2.01 -1.264,-1.105 -3.223,-2.624 -4.354,-3.375 -1.131,-0.751 -2.3,-1.658 -2.597,-2.017 -0.298,-0.358 -1.094,-0.934 -1.77,-1.28 -1.285,-0.657 -4.508,-3.195 -6.241,-4.914 -0.557,-0.552 -1.348,-1.192 -1.758,-1.421 -1.007,-0.563 0.541,-3.073 2.465,-3.995 0.712,-0.341 1.479,-0.966 1.705,-1.388 0.226,-0.422 1.03,-1.061 1.786,-1.42 0.757,-0.359 1.847,-1.089 2.421,-1.622 0.575,-0.533 1.754,-1.33 2.619,-1.771 0.866,-0.442 1.574,-0.976 1.574,-1.187 0,-0.211 0.705,-0.744 1.567,-1.183 0.862,-0.44 2.408,-1.389 3.435,-2.108 1.028,-0.72 2.222,-1.51 2.655,-1.757 0.432,-0.246 1.143,-0.831 1.58,-1.3 0.437,-0.468 1.147,-0.852 1.577,-0.852 0.431,0 1.459,-0.604 2.285,-1.342 1.462,-1.308 3.015,-2.402 6.892,-4.858 3.927,-2.486 6.613,-4.345 6.741,-4.662 0.072,-0.181 0.882,-0.665 1.8,-1.075 0.917,-0.411 2.011,-1.133 2.43,-1.605 0.419,-0.472 0.933,-0.858 1.142,-0.858 0.21,0 1.098,-0.568 1.974,-1.261 1.87,-1.482 7.81,-5.139 8.345,-5.139 0.204,0 0.597,-0.376 0.874,-0.835 0.276,-0.459 1.573,-1.379 2.882,-2.045 2.503,-1.274 6.044,-3.742 6.97,-4.859 0.302,-0.364 0.805,-0.661 1.118,-0.661 0.313,0 1.056,-0.489 1.651,-1.086 0.595,-0.598 1.94,-1.515 2.989,-2.039 1.049,-0.525 2.082,-1.281 2.297,-1.682 0.214,-0.401 1.066,-0.952 1.893,-1.224 0.827,-0.273 2.378,-1.097 3.448,-1.832 2.049,-1.409 4.442,-1.79 5.375,-0.857 M 44.042,249.599 c -3.935,0.242 -4.211,0.316 -5.143,1.4 -2.092,2.432 -0.408,5.828 3.24,6.534 1.133,0.22 3.771,0.772 5.861,1.228 2.09,0.456 4.66,0.831 5.711,0.834 1.05,0.003 4.56,0.536 7.8,1.184 3.239,0.649 9.129,1.467 13.089,1.819 3.96,0.352 9,0.801 11.2,0.998 2.2,0.197 4.72,0.572 5.6,0.833 1.174,0.349 5.01,0.407 14.4,0.218 l 12.8,-0.258 0.759,1.059 c 0.418,0.583 0.745,1.566 0.728,2.184 -0.035,1.236 -4.053,13.453 -5.055,15.368 -0.345,0.66 -0.628,1.4 -0.63,1.644 -0.001,0.245 -0.624,2.323 -1.384,4.618 -0.76,2.296 -1.76,6.287 -2.223,8.87 -0.462,2.583 -1.101,5.436 -1.42,6.34 -0.319,0.904 -0.761,3.237 -0.982,5.186 -0.22,1.948 -0.748,5.387 -1.173,7.642 -0.425,2.255 -0.974,5.54 -1.221,7.3 -0.248,1.76 -0.914,5.81 -1.481,9 -0.567,3.19 -1.114,7.288 -1.216,9.106 l -0.185,3.306 1.586,1.585 1.585,1.585 1.756,-0.506 c 2.436,-0.701 2.676,-1.272 7.58,-18.076 0.707,-2.42 1.609,-5.48 2.005,-6.8 2.079,-6.927 3.171,-10.763 3.171,-11.136 0,-0.452 1.397,-5.141 3.237,-10.864 0.636,-1.98 1.795,-5.85 2.574,-8.6 0.78,-2.75 1.839,-6.44 2.355,-8.2 0.515,-1.76 1.689,-5.81 2.609,-9 1.571,-5.449 3.026,-10.214 4.827,-15.8 2.183,-6.775 2.207,-9.468 0.094,-10.524 -0.792,-0.396 -86.091,-0.466 -92.454,-0.077 m 92.144,2.434 c 0.247,0.242 0.198,0.843 -0.137,1.673 -0.613,1.522 -0.908,2.535 -2.06,7.094 -0.473,1.87 -1.184,4.12 -1.58,5 -0.396,0.88 -1.009,3.359 -1.362,5.51 -0.353,2.15 -0.906,4.313 -1.229,4.806 -0.323,0.493 -1.058,2.694 -1.634,4.89 -0.576,2.197 -1.384,4.714 -1.797,5.594 -0.412,0.88 -0.948,2.857 -1.191,4.393 -0.243,1.537 -0.796,3.595 -1.229,4.575 -0.434,0.98 -1.138,3.153 -1.566,4.829 -0.428,1.676 -1.216,4.211 -1.751,5.632 -0.535,1.422 -1.185,3.752 -1.443,5.178 -0.259,1.426 -0.898,3.511 -1.421,4.632 -0.523,1.122 -1.075,3.251 -1.227,4.731 -0.182,1.781 -0.582,3.141 -1.18,4.024 -0.498,0.733 -1.116,2.384 -1.374,3.669 -0.975,4.856 -1.283,5.952 -2.245,7.985 -0.544,1.15 -1.178,3.164 -1.409,4.476 -0.428,2.427 -3.101,6.264 -3.843,5.514 -0.677,-0.685 -0.138,-12.426 0.68,-14.804 0.43,-1.25 0.893,-3.659 1.029,-5.353 0.312,-3.885 1.393,-12.174 1.64,-12.574 0.103,-0.165 0.358,-1.427 0.567,-2.804 0.425,-2.794 1.542,-8.286 3.032,-14.903 1.525,-6.77 1.843,-7.936 2.401,-8.81 0.284,-0.446 0.962,-2.246 1.506,-4 0.897,-2.894 1.792,-5.684 4.302,-13.412 1.042,-3.209 0.729,-5.25 -1.005,-6.539 -1.095,-0.815 -1.537,-0.839 -15.194,-0.839 -13.515,0 -17.398,-0.17 -23.066,-1.008 -1.43,-0.211 -5.39,-0.657 -8.8,-0.99 -3.41,-0.333 -8.27,-0.973 -10.8,-1.422 -2.53,-0.449 -5.77,-0.975 -7.2,-1.169 -1.43,-0.194 -4.22,-0.707 -6.2,-1.141 -1.98,-0.433 -4.443,-0.905 -5.473,-1.049 -1.569,-0.219 -1.999,-0.478 -2.659,-1.596 l -0.787,-1.333 0.86,-0.449 c 1.502,-0.784 94.044,-0.794 94.845,-0.01 m 55.588,14.061 v 0 m 36.603,11.714 c -1.22,0.64 -3.341,4.783 -4.145,8.094 -0.307,1.264 -1.04,3.276 -1.631,4.471 -0.59,1.195 -1.304,3.265 -1.587,4.6 -0.282,1.335 -0.871,3.237 -1.308,4.227 -0.839,1.901 -1.682,4.342 -3.869,11.2 -0.736,2.31 -1.737,5.19 -2.223,6.4 -0.487,1.21 -1.044,3.17 -1.238,4.355 -0.193,1.186 -0.63,2.462 -0.969,2.837 -0.339,0.375 -1.042,2.105 -1.561,3.845 -2.622,8.775 -3.577,11.688 -4.265,13.018 -0.414,0.8 -1.131,2.866 -1.593,4.59 -0.462,1.725 -0.981,3.321 -1.152,3.546 -0.171,0.225 -0.809,2.029 -1.418,4.009 -0.608,1.98 -1.605,4.95 -2.214,6.6 -3.601,9.75 -4.072,11.728 -3.383,14.205 0.615,2.215 2.059,2.825 6.278,2.655 1.879,-0.075 3.066,-1.834 7.701,-11.415 0.22,-0.455 1.254,-2.451 2.297,-4.436 3.348,-6.367 10.303,-20.717 10.303,-21.257 0,-0.147 0.63,-1.578 1.4,-3.179 0.77,-1.601 1.401,-3.15 1.402,-3.442 0,-0.292 0.54,-1.611 1.198,-2.931 0.658,-1.32 1.198,-2.6 1.198,-2.845 10e-4,-0.245 0.511,-1.685 1.132,-3.2 0.622,-1.515 1.452,-4.105 1.844,-5.755 0.392,-1.65 1.066,-3.99 1.497,-5.2 0.431,-1.21 1.233,-3.609 1.781,-5.331 1.482,-4.654 2.994,-5.226 6.548,-2.477 0.99,0.766 2.288,1.666 2.884,2.002 0.596,0.335 1.527,1.014 2.069,1.508 2.511,2.288 3.355,3.007 4.828,4.112 0.87,0.652 2.31,1.868 3.2,2.702 0.891,0.834 3.419,2.704 5.619,4.155 2.2,1.452 4.36,2.883 4.8,3.179 0.44,0.297 2.33,1.55 4.2,2.785 1.87,1.234 3.85,2.59 4.4,3.013 0.55,0.422 1.799,1.132 2.775,1.578 0.976,0.445 2.021,1.162 2.323,1.592 0.301,0.43 0.745,0.782 0.987,0.782 0.242,0 1.044,0.461 1.782,1.024 0.739,0.563 2.588,1.639 4.109,2.391 1.521,0.752 2.876,1.546 3.011,1.765 0.136,0.218 1.046,0.751 2.023,1.183 0.977,0.432 2.365,1.227 3.083,1.767 0.719,0.539 2.027,1.342 2.907,1.784 3.434,1.726 5.566,2.911 6.169,3.428 3.104,2.661 6.16,2.53 8.637,-0.37 2.432,-2.846 2.202,-4.509 -0.919,-6.64 -1.771,-1.209 -6.533,-4.87 -9.687,-7.447 -0.77,-0.629 -2.885,-2.197 -4.7,-3.485 -1.815,-1.287 -3.3,-2.458 -3.3,-2.603 0,-0.144 -0.855,-0.824 -1.9,-1.511 -1.045,-0.687 -2.44,-1.764 -3.1,-2.393 -0.66,-0.629 -2.144,-1.793 -3.297,-2.585 -1.153,-0.793 -2.593,-1.822 -3.2,-2.287 -2.855,-2.189 -6.819,-5.338 -7.903,-6.279 -0.66,-0.573 -2.207,-1.784 -3.438,-2.692 -4.23,-3.119 -9.636,-7.252 -11.575,-8.85 -1.068,-0.88 -2.519,-2.05 -3.226,-2.6 -0.706,-0.55 -1.841,-1.456 -2.522,-2.013 -1.775,-1.451 -5.827,-4.517 -6.59,-4.986 -1.206,-0.742 -4.998,-3.595 -5.997,-4.511 -0.545,-0.501 -1.635,-1.304 -2.422,-1.784 -0.786,-0.48 -1.61,-1.091 -1.83,-1.358 -0.22,-0.267 -1.3,-1.154 -2.4,-1.971 -1.1,-0.817 -2.18,-1.626 -2.4,-1.796 -0.22,-0.171 -0.86,-0.069 -1.423,0.227 m 2.668,3.236 c 0.848,0.355 1.781,0.986 2.073,1.403 0.292,0.417 1.094,1.049 1.782,1.405 0.689,0.356 1.533,0.98 1.876,1.387 0.662,0.786 2.285,2.006 5.224,3.93 0.99,0.647 2.34,1.655 3,2.24 2.124,1.88 7.823,6.366 9.134,7.191 0.7,0.44 1.758,1.295 2.351,1.9 0.593,0.605 1.347,1.1 1.674,1.1 0.328,0 0.831,0.322 1.118,0.716 0.288,0.394 1.963,1.741 3.723,2.992 1.76,1.252 3.691,2.723 4.291,3.269 0.6,0.546 1.622,1.268 2.271,1.604 0.65,0.335 1.284,0.933 1.409,1.328 0.125,0.395 0.813,1.06 1.528,1.478 0.716,0.417 1.538,1.089 1.828,1.492 0.289,0.403 1.099,0.986 1.8,1.295 0.7,0.31 2.069,1.297 3.041,2.195 0.972,0.897 1.964,1.631 2.204,1.631 0.239,0 0.669,0.373 0.954,0.83 0.285,0.456 1.125,1.083 1.867,1.393 0.742,0.31 1.464,0.926 1.605,1.37 0.141,0.444 0.477,0.807 0.747,0.807 0.27,0 2.145,1.346 4.167,2.992 2.021,1.646 4.263,3.238 4.982,3.538 0.718,0.301 1.56,1.021 1.87,1.602 0.31,0.58 0.864,1.15 1.23,1.266 0.366,0.116 1.012,0.524 1.437,0.907 0.424,0.382 2.301,1.927 4.17,3.432 4.838,3.896 5.471,5.954 2.143,6.976 -1.199,0.368 -1.635,0.354 -2.126,-0.069 -0.34,-0.292 -1.203,-0.727 -1.917,-0.966 -0.714,-0.24 -1.9,-0.894 -2.636,-1.455 -0.735,-0.561 -1.95,-1.232 -2.701,-1.492 -0.75,-0.26 -1.833,-0.972 -2.405,-1.581 -0.599,-0.637 -1.832,-1.308 -2.9,-1.577 -1.023,-0.257 -1.859,-0.619 -1.859,-0.804 0,-0.512 -3.361,-2.369 -4.289,-2.369 -0.451,0 -1.105,-0.436 -1.454,-0.97 -0.35,-0.533 -1.045,-1.094 -1.546,-1.247 -0.501,-0.153 -1.181,-0.506 -1.511,-0.785 -0.33,-0.279 -1.679,-1.078 -2.998,-1.775 -1.319,-0.697 -2.759,-1.596 -3.2,-1.998 -0.441,-0.402 -1.432,-1.05 -2.202,-1.44 -0.77,-0.39 -2.03,-1.203 -2.8,-1.806 -0.77,-0.604 -1.788,-1.213 -2.263,-1.354 -0.475,-0.14 -0.955,-0.495 -1.067,-0.788 -0.258,-0.672 -5.18,-3.95 -7.17,-4.775 -0.825,-0.341 -1.5,-0.786 -1.5,-0.988 0,-0.202 -0.765,-0.869 -1.7,-1.482 -0.935,-0.612 -1.847,-1.361 -2.026,-1.663 -0.179,-0.303 -0.92,-0.95 -1.647,-1.439 -0.727,-0.49 -2.291,-1.67 -3.475,-2.623 -1.183,-0.953 -2.761,-2.213 -3.505,-2.8 -0.744,-0.587 -1.938,-1.562 -2.653,-2.167 -0.715,-0.605 -1.488,-1.1 -1.718,-1.1 -0.23,0 -0.747,-0.405 -1.15,-0.9 -2.579,-3.173 -6.441,-1.893 -7.374,2.445 -0.267,1.24 -0.787,2.885 -1.156,3.655 -0.369,0.77 -1.085,2.93 -1.59,4.8 -0.504,1.87 -1.146,3.94 -1.426,4.6 -0.279,0.66 -0.872,2.316 -1.316,3.68 -0.444,1.364 -1.079,3.074 -1.41,3.8 -0.331,0.726 -0.955,2.492 -1.386,3.924 -0.43,1.433 -1.329,3.683 -1.996,5 -0.667,1.318 -1.34,2.936 -1.495,3.596 -0.155,0.66 -0.683,1.74 -1.173,2.4 -0.49,0.66 -1.202,2.273 -1.583,3.585 -0.381,1.312 -1.111,2.882 -1.622,3.49 -0.512,0.607 -1.152,1.784 -1.424,2.615 -0.271,0.83 -1.006,2.425 -1.634,3.542 -0.628,1.118 -1.141,2.319 -1.141,2.67 0,0.35 -0.426,1.145 -0.947,1.767 -0.521,0.622 -1.334,1.982 -1.806,3.022 -0.472,1.04 -1.288,2.523 -1.812,3.295 -0.524,0.773 -1.16,2.268 -1.413,3.323 -0.31,1.291 -0.74,2.044 -1.315,2.304 -0.481,0.218 -1.086,1.088 -1.382,1.989 -0.776,2.362 -3.011,3.063 -4.639,1.455 l -1.114,-1.1 0.892,-4.522 c 0.694,-3.516 1.142,-4.835 2.014,-5.933 0.706,-0.888 1.122,-1.891 1.122,-2.702 0,-2.029 0.753,-5.482 1.346,-6.172 0.297,-0.345 0.846,-1.876 1.22,-3.401 0.374,-1.525 1.12,-3.704 1.659,-4.842 1.105,-2.336 2.164,-5.617 2.171,-6.723 0.002,-0.406 0.373,-1.256 0.823,-1.889 0.451,-0.633 0.986,-2.1 1.191,-3.262 0.615,-3.49 1.027,-4.841 1.924,-6.307 0.47,-0.768 1.149,-2.748 1.509,-4.4 0.36,-1.652 0.995,-3.379 1.412,-3.837 0.435,-0.478 1.011,-2.155 1.352,-3.939 0.327,-1.709 0.932,-3.584 1.343,-4.167 0.412,-0.584 1.051,-2.411 1.42,-4.061 0.369,-1.65 1.194,-4.014 1.834,-5.253 0.762,-1.475 1.259,-3.181 1.439,-4.94 0.205,-1.998 0.526,-2.984 1.254,-3.849 0.614,-0.731 1.2,-2.233 1.574,-4.043 0.375,-1.812 0.96,-3.311 1.577,-4.045 0.54,-0.641 1.249,-1.684 1.577,-2.318 0.701,-1.356 0.493,-1.313 2.42,-0.508"
       inkscape:connector-curvature="0"
       style="fill:#87c145;fill-opacity:1;fill-rule:evenodd;stroke:none"
       sodipodi:nodetypes="ccscsccccscsccccccccscccscssccscccccscsscccccccccsccccccccscscccccssscscccscsccccccsscccscccccscccccssscccsccsscscccccccssccscccsssscccssscssssscccscccsccccccccccccssccccccccccsccsccccscscccccscccccccccccccscccscccsccccccsccccccssccscccscccccscccsccccccscscsccsccscssscccsccccscccscccccscccccccccccccccccssccccsccccccccccscsscccsssccsscccscccsssscssscccccsscccccscccscscscscscccccscccsccccsccccsscscccscccccccccsccsscccccccccscscscccccccsccccccccccscsccccsccccccccccccccccccscsssccccccccccccccccscccsccccccsscsccssccccccccccccscscscccccccsssccccccccccsscccscccccssccscsccccscssscccscccccccccsscsssssccccsccccsssccsccssccssscccsssccccccccscscccccscccsccccccc" />
  </g>
</svg>
